<svg xmlns="http://www.w3.org/2000/svg" width="1195" height="552" fill="none"><path fill="url(#a)" d="M230.232 540.641v-82.384H0v-93.416L166.973 11.033h114.749L114.748 364.841h115.484V232.439H331.74v132.402h47.076v93.416H331.74v82.384H230.232Z"/><path fill="url(#b)" d="M597.452 551.674c-39.23 0-73.557-8.214-102.979-24.641-29.423-16.428-52.348-39.353-68.776-68.776-16.428-29.422-24.641-63.749-24.641-102.979V196.396c0-39.23 8.213-73.557 24.641-102.98 16.428-29.422 39.353-52.347 68.776-68.775C523.895 8.214 558.222 0 597.452 0s73.556 8.214 102.979 24.641c29.423 16.428 52.348 39.353 68.775 68.776 16.428 29.422 24.642 63.749 24.642 102.979v158.882c0 39.23-8.214 73.557-24.642 102.979-16.427 29.423-39.352 52.348-68.775 68.776-29.423 16.427-63.749 24.641-102.979 24.641Z"/><path fill="url(#c)" d="M1046.02 540.641v-82.384H815.788v-93.416L982.762 11.033h114.748L930.536 364.841h115.484V232.439h101.51v132.402h47.07v93.416h-47.07v82.384h-101.51Z"/><defs><linearGradient id="a" x1="597.722" x2="597.722" y1="10.641" y2="540.641" gradientUnits="userSpaceOnUse"><stop stop-color="#fff"/><stop offset="1" stop-color="#E3EBF9"/></linearGradient><linearGradient id="b" x1="597.722" x2="597.722" y1="10.641" y2="540.641" gradientUnits="userSpaceOnUse"><stop stop-color="#fff"/><stop offset="1" stop-color="#E3EBF9"/></linearGradient><linearGradient id="c" x1="597.722" x2="597.722" y1="10.641" y2="540.641" gradientUnits="userSpaceOnUse"><stop stop-color="#fff"/><stop offset="1" stop-color="#E3EBF9"/></linearGradient></defs></svg>